<svg width="100" height="92" viewBox="0 0 100 92" fill="none" xmlns="http://www.w3.org/2000/svg">
<path d="M36.0447 25.8044L36.3661 31.5749L31.224 39.1017L23.1894 51.3954L21.5825 61.6821L27.3674 76.2338L40.5441 82.0044H60.4699L79.1101 70.9651L87.4661 53.6535L68.1831 35.3383L62.7196 25.0517L36.0447 25.8044Z" fill="#ECEFF1"/>
<path d="M81.6811 40.1052C76.539 34.3347 72.361 30.8222 70.1113 23.5463C67.8616 16.2704 70.7541 18.2776 68.8258 12.0053C67.8616 8.74364 66.2547 6.48561 64.6478 4.72936C62.7195 2.97311 60.4698 1.96954 59.1843 1.71865C56.2918 0.464182 49.5428 -1.54296 41.1868 1.96954C32.5094 5.48204 33.4736 13.0088 35.0805 28.3133C35.0805 29.3169 34.7591 30.5713 34.1163 31.5749C32.8308 33.8329 30.5811 35.8401 28.6528 37.5963C26.4031 40.1052 24.1535 42.6142 22.5465 45.374C18.6899 51.1445 15.1547 58.4204 16.1189 61.1802C17.7258 60.9294 37.9729 85.0151 37.9729 85.5168C39.2585 85.266 44.722 85.266 49.5427 85.266C56.2918 85.0151 60.1484 84.7642 65.6119 85.7677C65.6119 85.0151 65.2905 84.2624 65.2905 83.5097C65.2905 82.0043 65.6119 80.7499 65.9333 78.9936C66.2547 77.7392 66.5761 76.4847 66.8975 74.9794C63.6836 77.2374 57.8987 79.7463 52.4352 80.499C47.6145 81.2517 39.5799 79.9972 35.7233 76.2338C36.0446 76.2338 36.6874 76.2338 37.0088 75.9829C37.9729 75.732 38.9371 75.4811 39.2585 74.9794C40.2226 73.7249 39.5799 72.4704 38.9371 71.7177C38.2943 70.9651 33.4736 68.2052 31.2239 66.6999C28.9742 65.1945 27.6887 64.4419 26.4031 63.4383C26.4031 63.4383 24.4748 61.9329 23.8321 61.4311C23.1893 60.9294 22.8679 60.4276 22.5465 60.1767C21.9038 58.9222 21.5824 57.4169 21.9038 55.4097C22.2251 52.6499 23.5107 50.3919 25.1176 47.8829C25.7604 46.8794 27.3673 44.8722 27.3673 44.8722C27.3673 44.8722 21.9038 55.4097 24.7962 58.6713C24.7962 58.6713 25.1176 55.4097 26.4031 52.1481C27.3673 49.8901 28.9742 46.6285 30.9025 44.8722C32.8308 43.116 37.6516 36.5927 37.9729 32.5785C37.9729 30.8222 38.2943 29.066 38.2943 27.8115C37.0088 26.8079 59.5056 24.299 60.7912 27.0588C61.1126 28.0624 65.6119 37.0945 68.183 41.8615C69.4685 44.1195 71.0754 46.1267 72.0396 48.6356C73.0037 51.3954 73.6465 55.1588 73.6465 58.9222C73.6465 59.6749 73.6465 60.9294 73.3251 62.1838C73.9679 62.1838 86.5019 51.6463 71.7182 42.8651C71.7182 42.8651 80.7169 46.1267 81.0383 52.6499C81.3597 57.9186 78.4673 62.1838 77.8245 62.9365C78.1459 62.9365 84.5736 65.1945 84.8949 65.1945C86.1805 65.1945 88.7515 64.4418 88.7515 64.4418C89.0729 63.6892 90.0371 61.682 90.0371 60.9294C92.2868 55.1588 86.8232 45.8758 81.6811 40.1052Z" fill="#263238"/>
<path d="M40.8654 23.5463C43.1729 23.5463 45.0434 21.2998 45.0434 18.5285C45.0434 15.7572 43.1729 13.5106 40.8654 13.5106C38.558 13.5106 36.6874 15.7572 36.6874 18.5285C36.6874 21.2998 38.558 23.5463 40.8654 23.5463Z" fill="#ECEFF1"/>
<path d="M55.3277 24.0482C58.3451 24.0482 60.7912 21.4646 60.7912 18.2776C60.7912 15.0906 58.3451 12.5071 55.3277 12.5071C52.3103 12.5071 49.8642 15.0906 49.8642 18.2776C49.8642 21.4646 52.3103 24.0482 55.3277 24.0482Z" fill="#ECEFF1"/>
<path d="M43.1994 18.8719C42.9323 17.2222 41.7165 15.9835 40.4839 16.1052C39.2512 16.2268 38.4685 17.6627 38.7356 19.3123C39.0027 20.962 40.2184 22.2007 41.4511 22.079C42.6837 21.9574 43.4665 20.5215 43.1994 18.8719Z" fill="#212121"/>
<path d="M55.0063 22.5427C56.7812 22.5427 58.2201 21.0825 58.2201 19.2811C58.2201 17.4798 56.7812 16.0195 55.0063 16.0195C53.2313 16.0195 51.7924 17.4798 51.7924 19.2811C51.7924 21.0825 53.2313 22.5427 55.0063 22.5427Z" fill="#212121"/>
<path d="M97.7503 74.4776C96.4647 73.9758 94.215 73.2231 92.2867 70.9651C91.3226 69.7106 91.644 66.1981 90.0371 64.6928C89.0729 63.6892 87.7874 64.191 87.466 64.191C84.5735 64.6928 77.8245 68.2053 73.3251 64.191C72.6824 63.6892 71.7182 62.9365 70.1113 62.9365C68.5044 62.9365 67.8616 63.4383 67.2188 64.4419C66.5761 65.4454 66.5761 66.1981 66.5761 68.7071C66.5761 70.7142 66.5761 72.9722 66.2547 74.7285C65.6119 78.9937 64.6478 81.5026 64.6478 84.0115C64.6478 86.7714 65.6119 88.5276 66.8975 89.2803C67.8616 90.033 69.4685 90.5347 73.0037 90.5347C76.539 90.5347 78.7886 89.5312 81.0383 87.7749C82.6452 86.5205 83.9308 86.0187 88.4302 83.5097C91.9654 81.7535 97.4289 79.4955 98.393 78.7428C99.0358 78.241 100 77.9901 100 76.4847C100 75.2303 98.7144 74.7285 97.7503 74.4776Z" fill="#FFC107"/>
<path d="M33.1522 75.2303C29.9384 71.216 29.617 70.4633 27.3673 67.9544C25.439 65.4454 21.261 60.6785 18.69 60.6785C16.7617 60.6785 15.7975 61.4311 14.512 62.4347C13.2264 63.4383 11.9409 65.6963 9.69122 66.9508C7.76292 68.2053 2.2994 67.9544 1.01387 69.4597C-0.271666 70.9651 2.2994 73.2231 2.2994 76.9865C2.2994 78.4919 0.692485 79.4954 0.371102 80.499C0.0497182 81.7535 -0.271665 82.5062 0.371102 83.5097C1.65664 85.0151 3.26355 85.5169 14.1906 87.2731C19.9755 88.2767 25.439 90.7856 28.9742 91.0365C32.5095 91.2874 38.6157 91.0365 38.6157 84.2624C38.9371 80.2481 36.0447 79.2445 33.1522 75.2303Z" fill="#FFC107"/>
<path d="M39.2585 29.8187C37.3302 28.8151 35.7233 27.8115 35.7233 26.3062C35.7233 24.8008 37.0088 24.299 38.9371 23.0446C39.2585 22.7937 42.7937 20.2847 46.3289 20.2847C49.8641 20.2847 54.0421 22.041 55.649 22.5428C58.5415 23.0445 61.4339 23.5463 61.1126 25.3026C60.7912 27.8115 60.4698 28.3133 57.256 29.5678C55.0063 30.0696 50.8283 32.8294 47.9358 32.8294C46.6503 32.8294 44.722 32.8294 43.4365 32.5785C42.4723 32.3276 40.8654 31.0731 39.2585 29.8187Z" fill="#FFC107"/>
<path d="M38.6157 27.8116C39.2585 28.3134 40.2227 28.8151 41.1868 29.066C41.8296 29.3169 42.7937 29.5678 42.7937 29.5678C44.0793 29.5678 45.0434 29.5678 45.6862 29.5678C47.2931 29.5678 49.5428 29.066 51.7925 28.0625C54.0421 27.3098 54.3635 26.808 55.9704 26.3062C57.5774 25.5535 59.1843 24.8009 58.5415 24.55C57.8987 24.2991 57.256 24.55 55.0063 25.5535C53.078 26.5571 51.4711 27.0589 49.5428 27.8116C48.5786 28.0625 47.2931 28.5642 46.3289 28.5642C45.3648 28.5642 44.4006 28.5642 43.4365 28.5642C42.4723 28.5642 41.8296 28.3134 40.8654 28.0625C40.2227 27.8116 39.9013 27.5607 39.5799 27.5607C38.9371 27.3098 37.6516 26.3062 37.0088 26.0553C37.0088 26.0553 36.366 26.0553 36.6874 26.3062C37.6516 27.0589 37.973 27.3098 38.6157 27.8116Z" fill="#634703"/>
<path d="M48.2573 22.2919C48.5787 22.7937 49.2214 22.7937 49.5428 23.0446C49.8642 23.2955 50.1856 23.2955 50.1856 23.2955C50.507 23.0446 50.1856 22.5428 49.8642 22.5428C49.8642 22.041 48.2573 22.041 48.2573 22.2919Z" fill="#634703"/>
<path d="M43.1151 22.7936C43.1151 23.0445 43.7579 23.2954 43.7579 23.0445C44.0793 22.7936 44.4007 22.5427 44.7221 22.5427C45.3648 22.2918 45.0434 22.041 44.0793 22.041C43.4365 22.2918 43.4365 22.5427 43.1151 22.7936Z" fill="#634703"/>
<path d="M74.2893 67.2017C74.2893 67.4526 74.2893 67.7035 74.2893 67.9544C74.9321 68.9579 76.539 69.2088 77.8246 69.2088C79.7529 69.2088 81.6812 68.2053 82.6453 67.2017C82.6453 66.9508 82.9667 66.6999 83.2881 66.449C83.9309 65.6963 84.2522 65.1945 84.5736 64.9437C84.5736 64.9437 84.2522 64.6928 84.2522 64.4419C83.9308 63.9401 82.9667 63.4383 81.6812 63.1874C80.717 62.9365 79.1101 62.6856 78.4673 62.6856C75.5749 62.4347 73.968 63.1874 73.0038 63.9401C73.0038 63.9401 73.3252 63.9401 73.3252 64.191C73.968 64.6928 74.2893 65.1946 74.2893 65.9472C74.6107 66.449 74.2893 66.6999 74.2893 67.2017Z" fill="#455A64"/>
</svg>
